<?xml version="1.0" encoding="utf-8"?>
<!-- Generator: Adobe Illustrator 21.0.2, SVG Export Plug-In . SVG Version: 6.00 Build 0)  -->
<svg version="1.1" xmlns="http://www.w3.org/2000/svg" xmlns:xlink="http://www.w3.org/1999/xlink" x="0px" y="0px"
	 viewBox="0 0 280 144" style="enable-background:new 0 0 280 144;" xml:space="preserve">
<style type="text/css">
	.st0{fill:none;stroke:#587DF9;stroke-width:2;stroke-miterlimit:10;}
	.st1{fill:none;stroke:#F60051;stroke-width:2;stroke-miterlimit:10;}
	.st2{fill:none;stroke:#27F986;stroke-width:2;stroke-miterlimit:10;}
	.st3{fill:none;stroke:#587DF9;stroke-width:14;stroke-miterlimit:10;}
	.st4{fill:none;stroke:#F60051;stroke-width:14;stroke-miterlimit:10;}
	.st5{fill:none;stroke:#27F986;stroke-width:14;stroke-miterlimit:10;}
	.st6{fill:#27F986;}
</style>
<g id="Layer_2">
	<g id="anime_1_">
		<path class="st0" d="M62.3,128v-27c0-8.271-6.729-15-15-15s-15,6.729-15,15c0,7.935,6.194,14.45,14,14.967v12.015
			c-14.427-0.527-26-12.428-26-26.981c0-14.888,12.112-27,27-27s27,12.112,27,27v27H62.3z"/>
		<rect x="62.3" y="74" class="st1" width="12" height="54"/>
		<path class="st1" d="M104.3,128v-27c0-8.271-6.729-15-15-15c-8.148,0-14.737,6.619-15,15.068l0,26.932h-12l0.002-27.182
			C62.691,85.791,74.55,74,89.3,74c14.888,0,27,12.112,27,27v27H104.3z"/>
		<rect x="118.3" y="74" class="st0" width="12" height="54"/>
		<path class="st0" d="M160.3,128v-27c0-8.271-6.729-15-15-15c-8.148,0-14.737,6.619-15,15.068l0,26.932h-12l0.002-27.182
			C118.691,85.791,130.55,74,145.3,74c14.888,0,27,12.112,27,27v27H160.3z"/>
		<path class="st1" d="M202.3,128v-27c0-8.271-6.729-15-15-15c-8.061,0-14.649,6.629-14.999,15.091L172.3,128h-12l0.004-27.241
			C160.821,85.769,172.68,74,187.3,74c14.888,0,27,12.112,27,27v27H202.3z"/>
		<path class="st2" d="M228.3,127.981c-14.427-0.527-26-12.428-26-26.981c0-14.888,12.112-27,27-27s27,12.112,27,27v13h-26v-12h14
			v-1c0-8.271-6.729-15-15-15s-15,6.729-15,15c0,7.935,6.193,14.45,14,14.967V127.981z"/>
		<path class="st2" d="M130.25,127.981c-14.427-0.527-26-12.428-26-26.981v-6h12v6c0,7.935,6.194,14.45,14,14.967V127.981z"/>
		<circle class="st2" cx="110.25" cy="80" r="6"/>
	</g>
	<g id="react_1_">
		<rect x="215.3" y="32" class="st2" width="42" height="12"/>
		<path class="st1" d="M20.3,72V45c0-14.888,12.112-27,27-27c14.553,0,26.455,11.573,26.982,26H62.267
			C61.75,36.194,55.235,30,47.3,30c-8.271,0-15,6.729-15,15v27H20.3z"/>
		<path class="st2" d="M257.3,71.982c-14.427-0.527-26-12.429-26-26.982V16h12v29c0,7.935,6.193,14.45,14,14.967V71.982z"/>
		<path class="st1" d="M74.3,71.982C60.204,71.467,48.833,60.096,48.318,46h12.015c0.495,7.476,6.491,13.472,13.967,13.967V71.982z"
			/>
		<path class="st0" d="M160.3,72V45c0-8.271-6.729-15-15-15c-8.271,0-15,6.729-15,15c0,7.935,6.194,14.45,14,14.967v12.015
			c-14.427-0.527-26-12.429-26-26.982c0-14.888,12.112-27,27-27s27,12.112,27,27v27H160.3z"/>
		<path class="st2" d="M102.3,71.982c-14.427-0.527-26-12.429-26-26.982c0-14.888,12.112-27,27-27s27,12.112,27,27v13h-26V46h14v-1
			c0-8.271-6.729-15-15-15s-15,6.729-15,15c0,7.935,6.194,14.45,14,14.967V71.982z"/>
		<path class="st1" d="M187.3,72c-14.888,0-27-12.112-27-27s12.112-27,27-27h26v12h-26c-8.271,0-15,6.729-15,15s6.729,15,15,15h26
			v12H187.3z"/>
	</g>
</g>
<g id="Layer_1">
	<g id="anime">
		<path id="anime-a" class="st3" d="M47.3,122c-11.6,0-21-9.4-21-21s9.4-21,21-21s21,9.4,21,21v28"/>
		<path id="anime-n-line" class="st4" d="M68.3,129V73"/>
		<path id="anime-n" class="st4" d="M68.3,129v-28c0.3-11.6,9.4-21,21-21s21,9.4,21,21v28"/>
		<path id="anime-m1-line" class="st3" d="M124.3,129V73"/>
		<path id="anime-m1" class="st3" d="M124.3,129v-28c0.3-11.6,9.4-21,21-21s21,9.4,21,21v28"/>
		<path id="anime-m2" class="st4" d="M166.3,129v-28c0.4-11.6,9.4-21,21-21s21,9.4,21,21v28"/>
		<path id="anime-e" class="st5" d="M229.3,122c-11.6,0-21-9.4-21-21s9.4-21,21-21s21,9.4,21,21v7h-21"/>
		<path id="line-i" class="st5" d="M110.25,94v7c0,11.598,9.402,21,21,21"/>
		<ellipse id="dot-i" class="st6" cx="110.25" cy="80" rx="7" ry="7"/>
	</g>
	<g id="react">
		<line class="st5" x1="214.3" y1="38" x2="258.3" y2="38"/>
		<path class="st4" d="M68.3,45c0-11.6-9.4-21-21-21s-21,9.4-21,21v28"/>
		<path class="st5" d="M258.3,66c-11.6,0-21-9.4-21-21V15"/>
		<path class="st4" d="M75.3,66c-11.6,0-21-9.4-21-21"/>
		<path class="st3" d="M145.3,66c-11.6,0-21-9.4-21-21s9.4-21,21-21s21,9.4,21,21v28"/>
		<path class="st5" d="M103.3,66c-11.6,0-21-9.4-21-21s9.4-21,21-21s21,9.4,21,21v7h-21"/>
		<path class="st4" d="M214.3,24h-27c-11.6,0-21,9.4-21,21s9.4,21,21,21h27"/>
	</g>
</g>
</svg>
